<mxfile host="app.diagrams.net" modified="2023-09-14T02:52:12.096Z" agent="Mozilla/5.0 (Windows NT 10.0; Win64; x64) AppleWebKit/537.36 (KHTML, like Gecko) Chrome/116.0.0.0 Safari/537.36" etag="4nNNzxkpIGsS1ADfWsCZ" version="21.7.5" type="device">
  <diagram name="PÃ¡gina-1" id="LJgxR7TtULIjIdpwTdk6">
    <mxGraphModel dx="1017" dy="605" grid="0" gridSize="10" guides="1" tooltips="1" connect="1" arrows="1" fold="1" page="1" pageScale="1" pageWidth="827" pageHeight="1169" math="0" shadow="0">
      <root>
        <mxCell id="0" />
        <mxCell id="1" parent="0" />
        <mxCell id="Sojhd2eYGqkmIv3j76AO-10" value="WorkflowStatus" style="swimlane;fontStyle=0;childLayout=stackLayout;horizontal=1;startSize=26;fillColor=none;horizontalStack=0;resizeParent=1;resizeParentMax=0;resizeLast=0;collapsible=1;marginBottom=0;whiteSpace=wrap;html=1;" vertex="1" parent="1">
          <mxGeometry x="53" y="302" width="199" height="164" as="geometry" />
        </mxCell>
        <mxCell id="Sojhd2eYGqkmIv3j76AO-11" value="- name: String" style="text;strokeColor=none;fillColor=none;align=left;verticalAlign=top;spacingLeft=4;spacingRight=4;overflow=hidden;rotatable=0;points=[[0,0.5],[1,0.5]];portConstraint=eastwest;whiteSpace=wrap;html=1;" vertex="1" parent="Sojhd2eYGqkmIv3j76AO-10">
          <mxGeometry y="26" width="199" height="26" as="geometry" />
        </mxCell>
        <mxCell id="Sojhd2eYGqkmIv3j76AO-29" value="- typeId: int" style="text;strokeColor=none;fillColor=none;align=left;verticalAlign=top;spacingLeft=4;spacingRight=4;overflow=hidden;rotatable=0;points=[[0,0.5],[1,0.5]];portConstraint=eastwest;whiteSpace=wrap;html=1;" vertex="1" parent="Sojhd2eYGqkmIv3j76AO-10">
          <mxGeometry y="52" width="199" height="26" as="geometry" />
        </mxCell>
        <mxCell id="Sojhd2eYGqkmIv3j76AO-12" value="- type: String" style="text;strokeColor=none;fillColor=none;align=left;verticalAlign=top;spacingLeft=4;spacingRight=4;overflow=hidden;rotatable=0;points=[[0,0.5],[1,0.5]];portConstraint=eastwest;whiteSpace=wrap;html=1;" vertex="1" parent="Sojhd2eYGqkmIv3j76AO-10">
          <mxGeometry y="78" width="199" height="26" as="geometry" />
        </mxCell>
        <mxCell id="Sojhd2eYGqkmIv3j76AO-31" value="" style="line;strokeWidth=1;fillColor=none;align=left;verticalAlign=middle;spacingTop=-1;spacingLeft=3;spacingRight=3;rotatable=0;labelPosition=right;points=[];portConstraint=eastwest;strokeColor=inherit;" vertex="1" parent="Sojhd2eYGqkmIv3j76AO-10">
          <mxGeometry y="104" width="199" height="8" as="geometry" />
        </mxCell>
        <mxCell id="Sojhd2eYGqkmIv3j76AO-30" value="+ &amp;lt;&amp;lt;constructor&amp;gt;&amp;gt;Field()" style="text;strokeColor=none;fillColor=none;align=left;verticalAlign=top;spacingLeft=4;spacingRight=4;overflow=hidden;rotatable=0;points=[[0,0.5],[1,0.5]];portConstraint=eastwest;whiteSpace=wrap;html=1;" vertex="1" parent="Sojhd2eYGqkmIv3j76AO-10">
          <mxGeometry y="112" width="199" height="26" as="geometry" />
        </mxCell>
        <mxCell id="Sojhd2eYGqkmIv3j76AO-32" value="+ buildWorkflow(typeId : int) : void" style="text;strokeColor=none;fillColor=none;align=left;verticalAlign=top;spacingLeft=4;spacingRight=4;overflow=hidden;rotatable=0;points=[[0,0.5],[1,0.5]];portConstraint=eastwest;whiteSpace=wrap;html=1;" vertex="1" parent="Sojhd2eYGqkmIv3j76AO-10">
          <mxGeometry y="138" width="199" height="26" as="geometry" />
        </mxCell>
        <mxCell id="Sojhd2eYGqkmIv3j76AO-58" style="edgeStyle=orthogonalEdgeStyle;rounded=0;orthogonalLoop=1;jettySize=auto;html=1;entryX=1;entryY=0.5;entryDx=0;entryDy=0;" edge="1" parent="1" source="Sojhd2eYGqkmIv3j76AO-18" target="Sojhd2eYGqkmIv3j76AO-50">
          <mxGeometry relative="1" as="geometry">
            <Array as="points">
              <mxPoint x="357" y="156" />
            </Array>
          </mxGeometry>
        </mxCell>
        <mxCell id="Sojhd2eYGqkmIv3j76AO-18" value="FieldString" style="swimlane;fontStyle=1;align=center;verticalAlign=top;childLayout=stackLayout;horizontal=1;startSize=26;horizontalStack=0;resizeParent=1;resizeParentMax=0;resizeLast=0;collapsible=1;marginBottom=0;whiteSpace=wrap;html=1;" vertex="1" parent="1">
          <mxGeometry x="228" y="191" width="160" height="52" as="geometry" />
        </mxCell>
        <mxCell id="Sojhd2eYGqkmIv3j76AO-27" value="- content: String" style="text;strokeColor=none;fillColor=none;align=left;verticalAlign=top;spacingLeft=4;spacingRight=4;overflow=hidden;rotatable=0;points=[[0,0.5],[1,0.5]];portConstraint=eastwest;whiteSpace=wrap;html=1;" vertex="1" parent="Sojhd2eYGqkmIv3j76AO-18">
          <mxGeometry y="26" width="160" height="26" as="geometry" />
        </mxCell>
        <mxCell id="Sojhd2eYGqkmIv3j76AO-61" style="edgeStyle=orthogonalEdgeStyle;rounded=0;orthogonalLoop=1;jettySize=auto;html=1;entryX=0.491;entryY=1.038;entryDx=0;entryDy=0;entryPerimeter=0;exitX=0.824;exitY=0;exitDx=0;exitDy=0;exitPerimeter=0;" edge="1" parent="1" source="Sojhd2eYGqkmIv3j76AO-10" target="Sojhd2eYGqkmIv3j76AO-50">
          <mxGeometry relative="1" as="geometry">
            <Array as="points">
              <mxPoint x="215" y="302" />
            </Array>
          </mxGeometry>
        </mxCell>
        <mxCell id="Sojhd2eYGqkmIv3j76AO-63" value="1" style="edgeLabel;html=1;align=center;verticalAlign=middle;resizable=0;points=[];" vertex="1" connectable="0" parent="Sojhd2eYGqkmIv3j76AO-61">
          <mxGeometry x="-0.8548" relative="1" as="geometry">
            <mxPoint x="-7" y="-1" as="offset" />
          </mxGeometry>
        </mxCell>
        <mxCell id="Sojhd2eYGqkmIv3j76AO-64" value="1" style="edgeLabel;html=1;align=center;verticalAlign=middle;resizable=0;points=[];" vertex="1" connectable="0" parent="Sojhd2eYGqkmIv3j76AO-61">
          <mxGeometry x="0.7984" y="3" relative="1" as="geometry">
            <mxPoint x="-7" y="-5" as="offset" />
          </mxGeometry>
        </mxCell>
        <mxCell id="Sojhd2eYGqkmIv3j76AO-70" style="edgeStyle=orthogonalEdgeStyle;rounded=0;orthogonalLoop=1;jettySize=auto;html=1;entryX=1;entryY=0.25;entryDx=0;entryDy=0;" edge="1" parent="1" source="Sojhd2eYGqkmIv3j76AO-35" target="Sojhd2eYGqkmIv3j76AO-46">
          <mxGeometry relative="1" as="geometry">
            <Array as="points">
              <mxPoint x="448" y="79" />
            </Array>
          </mxGeometry>
        </mxCell>
        <mxCell id="Sojhd2eYGqkmIv3j76AO-72" value="1" style="edgeLabel;html=1;align=center;verticalAlign=middle;resizable=0;points=[];" vertex="1" connectable="0" parent="Sojhd2eYGqkmIv3j76AO-70">
          <mxGeometry x="-0.9027" y="1" relative="1" as="geometry">
            <mxPoint x="7" y="3" as="offset" />
          </mxGeometry>
        </mxCell>
        <mxCell id="Sojhd2eYGqkmIv3j76AO-73" value="1" style="edgeLabel;html=1;align=center;verticalAlign=middle;resizable=0;points=[];" vertex="1" connectable="0" parent="Sojhd2eYGqkmIv3j76AO-70">
          <mxGeometry x="0.8919" relative="1" as="geometry">
            <mxPoint y="-12" as="offset" />
          </mxGeometry>
        </mxCell>
        <mxCell id="Sojhd2eYGqkmIv3j76AO-35" value="Client" style="swimlane;fontStyle=1;align=center;verticalAlign=top;childLayout=stackLayout;horizontal=1;startSize=26;horizontalStack=0;resizeParent=1;resizeParentMax=0;resizeLast=0;collapsible=1;marginBottom=0;whiteSpace=wrap;html=1;" vertex="1" parent="1">
          <mxGeometry x="352" y="302" width="160" height="112" as="geometry" />
        </mxCell>
        <mxCell id="Sojhd2eYGqkmIv3j76AO-36" value="+ fields : List&amp;lt;Field&amp;gt;" style="text;strokeColor=none;fillColor=none;align=left;verticalAlign=top;spacingLeft=4;spacingRight=4;overflow=hidden;rotatable=0;points=[[0,0.5],[1,0.5]];portConstraint=eastwest;whiteSpace=wrap;html=1;" vertex="1" parent="Sojhd2eYGqkmIv3j76AO-35">
          <mxGeometry y="26" width="160" height="26" as="geometry" />
        </mxCell>
        <mxCell id="Sojhd2eYGqkmIv3j76AO-59" value="+ workflow : Workflow" style="text;strokeColor=none;fillColor=none;align=left;verticalAlign=top;spacingLeft=4;spacingRight=4;overflow=hidden;rotatable=0;points=[[0,0.5],[1,0.5]];portConstraint=eastwest;whiteSpace=wrap;html=1;" vertex="1" parent="Sojhd2eYGqkmIv3j76AO-35">
          <mxGeometry y="52" width="160" height="26" as="geometry" />
        </mxCell>
        <mxCell id="Sojhd2eYGqkmIv3j76AO-37" value="" style="line;strokeWidth=1;fillColor=none;align=left;verticalAlign=middle;spacingTop=-1;spacingLeft=3;spacingRight=3;rotatable=0;labelPosition=right;points=[];portConstraint=eastwest;strokeColor=inherit;" vertex="1" parent="Sojhd2eYGqkmIv3j76AO-35">
          <mxGeometry y="78" width="160" height="8" as="geometry" />
        </mxCell>
        <mxCell id="Sojhd2eYGqkmIv3j76AO-38" value="+ method(type): type" style="text;strokeColor=none;fillColor=none;align=left;verticalAlign=top;spacingLeft=4;spacingRight=4;overflow=hidden;rotatable=0;points=[[0,0.5],[1,0.5]];portConstraint=eastwest;whiteSpace=wrap;html=1;" vertex="1" parent="Sojhd2eYGqkmIv3j76AO-35">
          <mxGeometry y="86" width="160" height="26" as="geometry" />
        </mxCell>
        <mxCell id="Sojhd2eYGqkmIv3j76AO-57" style="edgeStyle=orthogonalEdgeStyle;rounded=0;orthogonalLoop=1;jettySize=auto;html=1;entryX=0;entryY=0.5;entryDx=0;entryDy=0;" edge="1" parent="1" source="Sojhd2eYGqkmIv3j76AO-40" target="Sojhd2eYGqkmIv3j76AO-50">
          <mxGeometry relative="1" as="geometry">
            <Array as="points">
              <mxPoint x="77" y="156" />
            </Array>
          </mxGeometry>
        </mxCell>
        <mxCell id="Sojhd2eYGqkmIv3j76AO-40" value="FieldInt" style="swimlane;fontStyle=1;align=center;verticalAlign=top;childLayout=stackLayout;horizontal=1;startSize=26;horizontalStack=0;resizeParent=1;resizeParentMax=0;resizeLast=0;collapsible=1;marginBottom=0;whiteSpace=wrap;html=1;" vertex="1" parent="1">
          <mxGeometry x="42" y="191" width="160" height="52" as="geometry" />
        </mxCell>
        <mxCell id="Sojhd2eYGqkmIv3j76AO-42" value="- content: Int" style="text;strokeColor=none;fillColor=none;align=left;verticalAlign=top;spacingLeft=4;spacingRight=4;overflow=hidden;rotatable=0;points=[[0,0.5],[1,0.5]];portConstraint=eastwest;whiteSpace=wrap;html=1;" vertex="1" parent="Sojhd2eYGqkmIv3j76AO-40">
          <mxGeometry y="26" width="160" height="26" as="geometry" />
        </mxCell>
        <mxCell id="Sojhd2eYGqkmIv3j76AO-46" value="&amp;lt;&amp;lt;Abstract&amp;gt;&amp;gt;&lt;br style=&quot;font-size: 12px;&quot;&gt;Field" style="swimlane;fontStyle=1;align=center;verticalAlign=top;childLayout=stackLayout;horizontal=1;startSize=40;horizontalStack=0;resizeParent=1;resizeParentMax=0;resizeLast=0;collapsible=1;marginBottom=0;whiteSpace=wrap;html=1;fontSize=12;strokeWidth=1;perimeterSpacing=0;swimlaneLine=1;" vertex="1" parent="1">
          <mxGeometry x="132" y="49" width="169" height="120" as="geometry" />
        </mxCell>
        <mxCell id="Sojhd2eYGqkmIv3j76AO-47" value="- name: String" style="text;strokeColor=none;fillColor=none;align=left;verticalAlign=top;spacingLeft=4;spacingRight=4;overflow=hidden;rotatable=0;points=[[0,0.5],[1,0.5]];portConstraint=eastwest;whiteSpace=wrap;html=1;" vertex="1" parent="Sojhd2eYGqkmIv3j76AO-46">
          <mxGeometry y="40" width="169" height="23" as="geometry" />
        </mxCell>
        <mxCell id="Sojhd2eYGqkmIv3j76AO-69" value="- workflowId: WorkflowStatus" style="text;strokeColor=none;fillColor=none;align=left;verticalAlign=top;spacingLeft=4;spacingRight=4;overflow=hidden;rotatable=0;points=[[0,0.5],[1,0.5]];portConstraint=eastwest;whiteSpace=wrap;html=1;" vertex="1" parent="Sojhd2eYGqkmIv3j76AO-46">
          <mxGeometry y="63" width="169" height="23" as="geometry" />
        </mxCell>
        <mxCell id="Sojhd2eYGqkmIv3j76AO-49" value="" style="line;strokeWidth=1;fillColor=none;align=left;verticalAlign=middle;spacingTop=-1;spacingLeft=3;spacingRight=3;rotatable=0;labelPosition=right;points=[];portConstraint=eastwest;strokeColor=inherit;" vertex="1" parent="Sojhd2eYGqkmIv3j76AO-46">
          <mxGeometry y="86" width="169" height="8" as="geometry" />
        </mxCell>
        <mxCell id="Sojhd2eYGqkmIv3j76AO-50" value="+ &amp;lt;&amp;lt;constructor&amp;gt;&amp;gt;Field()" style="text;strokeColor=none;fillColor=none;align=left;verticalAlign=top;spacingLeft=4;spacingRight=4;overflow=hidden;rotatable=0;points=[[0,0.5],[1,0.5]];portConstraint=eastwest;whiteSpace=wrap;html=1;" vertex="1" parent="Sojhd2eYGqkmIv3j76AO-46">
          <mxGeometry y="94" width="169" height="26" as="geometry" />
        </mxCell>
        <mxCell id="Sojhd2eYGqkmIv3j76AO-75" style="edgeStyle=orthogonalEdgeStyle;rounded=0;orthogonalLoop=1;jettySize=auto;html=1;entryX=1.013;entryY=0.154;entryDx=0;entryDy=0;entryPerimeter=0;" edge="1" parent="1" source="Sojhd2eYGqkmIv3j76AO-74" target="Sojhd2eYGqkmIv3j76AO-59">
          <mxGeometry relative="1" as="geometry" />
        </mxCell>
        <mxCell id="Sojhd2eYGqkmIv3j76AO-76" value="1" style="edgeLabel;html=1;align=center;verticalAlign=middle;resizable=0;points=[];" vertex="1" connectable="0" parent="Sojhd2eYGqkmIv3j76AO-75">
          <mxGeometry x="-0.0289" y="-3" relative="1" as="geometry">
            <mxPoint x="39" y="-5" as="offset" />
          </mxGeometry>
        </mxCell>
        <mxCell id="Sojhd2eYGqkmIv3j76AO-77" value="*" style="edgeLabel;html=1;align=center;verticalAlign=middle;resizable=0;points=[];" vertex="1" connectable="0" parent="Sojhd2eYGqkmIv3j76AO-75">
          <mxGeometry x="0.5061" relative="1" as="geometry">
            <mxPoint x="-18" y="-11" as="offset" />
          </mxGeometry>
        </mxCell>
        <mxCell id="Sojhd2eYGqkmIv3j76AO-74" value="Client Registration" style="html=1;whiteSpace=wrap;" vertex="1" parent="1">
          <mxGeometry x="615" y="333" width="110" height="50" as="geometry" />
        </mxCell>
      </root>
    </mxGraphModel>
  </diagram>
</mxfile>
